Coordinates
version=1
nRows=38
nColumns=12
inDegrees=yes

Units are S.I. units (second, meters, Newtons, ...)
Angles are in degrees

endheader
time	SC_y	SC_z	SC_x	AC_y	AC_z	AC_x	GH_y	GH_z	GH_yy	EL_x	PS_y
       0.0              -47.71          29.48          68.34          60.49          -3.82           8.69          57.25          23.76          123.0          114.2          104.0
   0.02212               -47.7          29.48          68.33          60.49         -3.819          8.689          57.25          23.77          123.0          114.2          104.0
   0.04424               -47.7          29.48          68.33          60.49         -3.819          8.689          57.26          23.77          123.0          114.2          104.1
   0.06636              -47.69          29.47          68.32          60.48         -3.819          8.689          57.26          23.78          123.0          114.2          104.1
   0.08848              -47.69          29.47          68.32          60.48         -3.818          8.688          57.27          23.78          123.0          114.2          104.1
    0.1106              -47.68          29.47          68.31          60.48         -3.818          8.688          57.27          23.79          123.0          114.2          104.1
    0.1327              -47.67          29.47           68.3          60.47         -3.817          8.688          57.28           23.8          123.0          114.2          104.1
    0.1548              -47.67          29.47           68.3          60.47         -3.817          8.687          57.29           23.8          123.0          114.2          104.1
     0.177              -47.66          29.47          68.29          60.46         -3.816          8.687           57.3          23.81          123.0          114.2          104.1
    0.1991              -47.65          29.47          68.28          60.46         -3.816          8.686           57.3          23.82          123.0          114.2          104.1
    0.2212              -47.64          29.47          68.27          60.46         -3.815          8.686          57.31          23.83          122.9          114.2          104.1
    0.2433              -47.63          29.46          68.27          60.45         -3.815          8.685          57.32          23.83          122.9          114.2          104.1
    0.2654              -47.62          29.46          68.26          60.44         -3.814          8.685          57.33          23.84          122.9          114.2          104.1
    0.2876              -47.61          29.46          68.25          60.44         -3.813          8.684          57.34          23.85          122.9          114.2          104.1
    0.3097               -47.6          29.46          68.23          60.43         -3.812          8.684          57.35          23.86          122.9          114.2          104.1
    0.3318              -47.59          29.46          68.22          60.42         -3.812          8.683          57.37          23.88          122.9          114.2          104.1
    0.3539              -47.57          29.45          68.21          60.41         -3.811          8.682          57.38          23.89          122.9          114.2          104.1
     0.376              -47.56          29.45          68.19          60.41          -3.81          8.681           57.4           23.9          122.9          114.2          104.1
    0.3982              -47.54          29.45          68.18           60.4         -3.809           8.68          57.41          23.92          122.9          114.2          104.1
    0.4203              -47.52          29.45          68.16          60.39         -3.807           8.68          57.43          23.94          122.9          114.2          104.1
    0.4424               -47.5          29.44          68.14          60.37         -3.806          8.678          57.45          23.95          122.9          114.2          104.1
    0.4645              -47.48          29.44          68.12          60.36         -3.805          8.677          57.47          23.98          122.9          114.2          104.1
    0.4866              -47.46          29.44           68.1          60.35         -3.803          8.676           57.5           24.0          122.9          114.2          104.1
    0.5088              -47.43          29.43          68.07          60.33         -3.801          8.674          57.52          24.02          122.9          114.2          104.1
    0.5309               -47.4          29.43          68.05          60.31         -3.799          8.673          57.55          24.05          122.8          114.2          104.1
     0.553              -47.37          29.42          68.02           60.3         -3.797          8.671          57.59          24.08          122.8          114.2          104.1
    0.5751              -47.33          29.41          67.98          60.27         -3.795          8.669          57.62          24.12          122.8          114.3          104.1
    0.5972              -47.29          29.41          67.94          60.25         -3.792          8.667          57.67          24.16          122.8          114.3          104.1
    0.6194              -47.24           29.4           67.9          60.22         -3.789          8.664          57.71           24.2          122.8          114.3          104.1
    0.6415              -47.19          29.39          67.85          60.19         -3.785          8.661          57.77          24.25          122.7          114.3          104.1
    0.6636              -47.13          29.38          67.79          60.15         -3.781          8.658          57.83          24.31          122.7          114.3          104.1
    0.6857              -47.06          29.37          67.72          60.11         -3.777          8.654           57.9          24.37          122.7          114.3          104.1
    0.7078              -46.98          29.36          67.64          60.07         -3.771          8.649          57.98          24.45          122.7          114.3          104.1
      0.73              -46.89          29.34          67.56          60.01         -3.765          8.644          58.07          24.54          122.6          114.3          104.1
    0.7521              -46.78          29.32          67.45          59.95         -3.758          8.638          58.18          24.64          122.6          114.4          104.1
    0.7742              -46.65           29.3          67.33          59.87         -3.749          8.631          58.32          24.77          122.5          114.4          104.2
    0.7963              -46.49          29.28          67.18          59.78         -3.739          8.623          58.47          24.91          122.4          114.4          104.2
    0.8184              -46.31          29.25          67.01          59.67         -3.727          8.612          58.66          25.08          122.4          114.5          104.2
